<svg xmlns="http://www.w3.org/2000/svg" width="37" height="24"><defs><clipPath id="a"><path d="M0 17h37v6.992H0Zm0 0"/></clipPath></defs><path d="M0 0h37v5.992H0Zm0 0" style="stroke:none;fill-rule:nonzero;fill:#032ea1;fill-opacity:1"/><g clip-path="url(#a)"><path d="M0 17.98h37v6.012H0Zm0 0" style="stroke:none;fill-rule:nonzero;fill:#032ea1;fill-opacity:1"/></g><path d="M0 5.992h37V17.98H0Zm0 0" style="stroke:none;fill-rule:nonzero;fill:#e00025;fill-opacity:1"/><path d="M18.375 7.203c.004-.219.23-.234.23 0zM18.254 7.363c.02-.195.332-.05.476-.093a1 1 0 0 0-.007.093c-.157 0-.313.004-.47 0M18.121 7.426c.254.004.504-.004.758.008-.152.203-.512.039-.746.09-.004-.024-.008-.075-.012-.098M18.055 7.586h.87l-.01.129h-.84c-.005-.031-.016-.094-.02-.13M18.016 7.773h.949l-.047.262h-.148v-.148q-.074.024-.149.054l-.121-.117q-.066.06-.125.117-.075-.03-.145-.054v.148h-.171q-.022-.131-.043-.262m0 0" style="stroke:none;fill-rule:nonzero;fill:#fff;fill-opacity:1"/><path d="M18.387 8.066c.043-.175.175-.171.222 0 .028-.03.078-.09.102-.117.004.078.004.16-.055.219-.05-.055-.105-.11-.156-.16q-.082.083-.168.164a.37.37 0 0 1-.047-.223zM17.855 8.047c.114.039.235.043.352.039.027.039.05.082.078.121l-.16-.047v.192c-.035.003-.102.003-.133.007a1.2 1.2 0 0 0-.137-.312M18.79 8.086a.9.9 0 0 0 .343-.043q-.092.148-.149.312h-.109c-.004-.066-.004-.128-.004-.195q-.076.022-.148.04.033-.055.066-.114m0 0" style="stroke:none;fill-rule:nonzero;fill:#fff;fill-opacity:1"/><path d="M18.188 8.219c.167.222.21-.004.312-.149.098.145.14.371.309.149q0 .08.003.16-.081.053-.164.113c-.082-.195-.214-.195-.3 0l-.164-.117q.002-.075.003-.156M17.863 8.746c.016-.16-.117-.285-.113-.441.14.203.527.008.582.32-.086-.031-.172-.07-.258-.102v.223zM18.668 8.625c.043-.312.453-.113.578-.34-.016.164-.133.293-.129.461h-.191q-.002-.11-.004-.223a5 5 0 0 0-.254.102m0 0" style="stroke:none;fill-rule:nonzero;fill:#fff;fill-opacity:1"/><path d="M18.328 8.785a1 1 0 0 1 .172-.406c.09.117.133.262.168.406a.5.5 0 0 1 .195-.191c.028.152-.004.297-.14.379-.118-.266-.328-.27-.446-.004-.14-.078-.172-.223-.14-.375.086.035.14.113.191.191M17.617 8.574c.024.07.051.145.078.215q.175.01.356.008c.043.09.12.156.191.223-.02.046-.039.097-.062.144a.6.6 0 0 0-.239-.129c0 .063-.003.121-.003.184q-.101.005-.196.004c.04-.235-.199-.407-.125-.649M18.95 8.797c.171.012.402.039.41-.203.085.23-.169.398-.122.629-.058 0-.117-.004-.18-.004l-.011-.192a.9.9 0 0 0-.23.137q-.034-.07-.067-.14a.9.9 0 0 0 .2-.227M13.98 8.918c.028-.195.165-.211.184-.004.367.012.102.797.418.512-.008.14-.137.297-.031.422l.14-.094c-.046.137-.12.262-.136.41.074-.023.144-.059.215-.098.02.164-.145.309-.086.47.132.1.246-.071.304-.177-.015.54-.004 1.082-.008 1.625h-.3v-.257a6 6 0 0 1-.246.085c.168-.222.347-.46.226-.761.035-.156.027-.317.024-.473a.6.6 0 0 0-.278.164l-.035-.129a.51.51 0 0 0 .168-.492q-.1.026-.2.05.06-.057.114-.116v-.258l-.16.07a.9.9 0 0 0 .05-.328c-.03.004-.09.012-.12.02q.058-.049.117-.09a1 1 0 0 1 0-.176q-.051.016-.102.031a3 3 0 0 0-.168-.156q-.085.076-.172.152l-.105-.023c-.008.11.02.207.121.265a1 1 0 0 0-.121-.023.9.9 0 0 0 .055.324q-.083-.036-.164-.066c-.012.14-.016.289.113.383q-.1-.034-.2-.063a.53.53 0 0 0 .176.5c-.023.23-.191-.047-.316-.043-.004.16-.02.324.031.477-.156.3.078.531.207.77-.078-.032-.152-.067-.23-.098 0 .086-.004.175-.004.261h-.285c-.012-.535 0-1.074-.008-1.613.266.434.379-.031.215-.3.297.214.168-.15.082-.317l.105.078a1 1 0 0 0 .086-.039c-.02-.117-.058-.234-.094-.352.34.258.047-.507.418-.523M22.832 8.914c.023-.207.152-.191.184.004.37.016.078.781.418.52-.02.132-.153.3-.024.41.027-.024.086-.07.117-.098-.07.164-.21.543.082.313-.16.273-.047.746.215.308-.004.54.008 1.074-.004 1.613h-.285q.001-.13-.004-.261c-.074.03-.152.066-.226.097.113-.234.324-.418.238-.71a.4.4 0 0 0-.047-.04c.07-.16.047-.332.04-.5a.9.9 0 0 0-.278.172l-.031-.129a.51.51 0 0 0 .168-.496l-.192.059c.125-.09.121-.239.11-.38q-.082.031-.165.067a1 1 0 0 0 .059-.32c-.031 0-.098.004-.129.008l.117-.082q.002-.084.004-.172c-.023.008-.078.015-.105.023a2 2 0 0 0-.168-.152q-.087.076-.168.152a1 1 0 0 1-.102-.027q-.001.089.004.172.054.046.113.094a1 1 0 0 0-.12-.02q-.001.17.05.328-.083-.036-.164-.074c-.004.14-.016.289.11.383q-.094-.031-.192-.055a.5.5 0 0 0 .168.492l-.035.13a.6.6 0 0 0-.274-.169c-.003.16-.015.324.02.48-.031.133-.023.274-.02.415.082.113.18.215.25.34-.086-.024-.168-.055-.25-.082v.257h-.3c-.004-.543.007-1.082-.004-1.625.054.106.172.278.304.172.047-.16-.109-.3-.082-.469a.4.4 0 0 0 .211.09c-.027-.136-.09-.261-.14-.39.273.199.152-.196.117-.344q.051.063.098.125c.144-.184 0-.55.312-.629m0 0" style="stroke:none;fill-rule:nonzero;fill:#fff;fill-opacity:1"/><path d="M17.996 9.09c.262.406.27-.156.504-.3.137.136.238.308.3.495q.09-.107.196-.195.005.148.004.289-.195-.001-.395.004-.053-.046-.105-.086-.058.041-.11.082h-.394zm0 0" style="stroke:none;fill-rule:nonzero;fill:#fff;fill-opacity:1"/><path d="M17.457 9.074c.055.239.29.211.477.196q.004.081.015.164.074.007.149.007.06.082.113.168l-.063.133a.5.5 0 0 0-.257-.133c-.004.04-.004.114-.008.153h-.184c-.015-.258-.293-.414-.242-.688M19.512 9.09c.07.265-.227.418-.223.676q-.087-.005-.168-.004c.024-.239-.183-.11-.277-.02q-.035-.076-.074-.148c.039-.051.074-.106.113-.156h.164c.004-.055.008-.114.015-.165.168 0 .41.051.45-.183M13.93 9.426a1 1 0 0 1 .136-.2 1 1 0 0 1 .145.196c.023-.004.07-.016.094-.02l-.106.106-.129-.094-.14.094-.106-.13zM22.781 9.43q.06-.11.149-.203.081.093.14.199l.098-.051c-.035.047-.07.09-.102.137l-.136-.098a2 2 0 0 0-.145.098 2 2 0 0 1-.098-.145zm0 0" style="stroke:none;fill-rule:nonzero;fill:#fff;fill-opacity:1"/><path d="M18.164 9.855a1.17 1.17 0 0 1 .336-.496c.148.133.266.305.332.496a1 1 0 0 1 .219-.195c0 .098 0 .192.004.29-.196-.009-.414.05-.559-.114q-.075.053-.144.113h-.41q0-.144.003-.289.124.083.22.195M13.926 9.668q.059-.11.14-.203a.9.9 0 0 1 .141.195c.031-.004.059-.012.09-.015-.016.046-.027.097-.04.144l-.187-.117q-.098.058-.191.117-.016-.088-.031-.176c.02.016.058.043.078.055M22.7 9.66c.116.004.16-.125.23-.195q.081.095.14.207l.075-.059-.024.176q-.1-.058-.195-.117l-.184.117q-.02-.065-.043-.129m0 0" style="stroke:none;fill-rule:nonzero;fill:#fff;fill-opacity:1"/><path d="M13.852 9.984c.043-.285.394-.277.437.004q.052-.062.106-.125.003.075.007.149c-.027.039-.058.082-.09.12a2 2 0 0 0-.242-.206 2 2 0 0 0-.242.207c-.027-.04-.058-.074-.09-.113.004-.04.004-.122.004-.16q.058.064.11.124M17.46 9.734c.118.106.278.079.423.079q.002.081.004.164c.187.062.254.289.18.464a1.1 1.1 0 0 0-.31-.199c-.007.078-.01.153-.019.23h-.09c.094-.296-.14-.48-.187-.738M19.11 9.813c.136-.008.304.042.398-.086q-.001.088-.008.175c-.246.13-.078.45-.238.598l-.024-.254a1 1 0 0 0-.304.191c-.094-.171-.043-.421.171-.457q.005-.08.004-.168M22.71 9.988a.43.43 0 0 1 .216-.254.42.42 0 0 1 .219.25q.052-.06.109-.125c0 .043 0 .121.004.16l-.09.114a1.5 1.5 0 0 0-.242-.207c-.09.062-.172.136-.25.21a.44.44 0 0 1-.086-.273zm0 0" style="stroke:none;fill-rule:nonzero;fill:#fff;fill-opacity:1"/><path d="M18.086 10.535c.059-.254.207-.48.414-.64.203.164.36.39.414.652q.118-.139.277-.23.005.164.004.335h-.48a2 2 0 0 0-.215-.226q-.122.099-.215.222-.245.005-.484.004-.001-.17.004-.336c.101.063.187.145.28.22M13.832 10.324a.53.53 0 0 1 .238-.332.53.53 0 0 1 .239.336 1 1 0 0 1 .171-.156.4.4 0 0 1-.128.383 1.2 1.2 0 0 0-.282-.352 1.2 1.2 0 0 0-.28.348c-.106-.102-.165-.235-.13-.383q.089.075.172.156m0 0" style="stroke:none;fill-rule:nonzero;fill:#fff;fill-opacity:1"/><path d="M18.066 10.008h.223c-.047.066-.09.133-.137.199q-.04-.1-.086-.2M22.691 10.324a.5.5 0 0 1 .235-.332.53.53 0 0 1 .238.332 3 3 0 0 1 .172-.156c.035.148-.023.281-.129.383a1.2 1.2 0 0 0-.277-.348 1.1 1.1 0 0 0-.285.352.4.4 0 0 1-.133-.383 1 1 0 0 1 .18.152M17.184 10.031c.445.328.128 1.012.226 1.485q-.081.005-.156.004c0-.258-.004-.516 0-.774.14-.14.105-.398-.074-.488q-.001-.11.004-.227M19.586 11.52c.098-.477-.223-1.16.227-1.485q0 .111.003.223c-.183.086-.214.344-.078.484q.005.389.004.778zm0 0" style="stroke:none;fill-rule:nonzero;fill:#fff;fill-opacity:1"/><path d="M17.473 10.11c.05.136.043.28.047.425h.226v.133c.16.11.176.316.207.488q-.058-.018-.117-.031-.005.117-.004.234a1.2 1.2 0 0 0-.367-.359c.008-.297-.012-.594.008-.89M19.484 10.531c.004-.136.004-.273.04-.406.019.29.003.582.007.871-.152.09-.27.219-.367.363 0-.078-.004-.16-.004-.238l-.125.043c.016-.152.05-.3.121-.437.024-.012.07-.028.094-.036v-.156q.117.001.234-.004M13.75 10.906c.047-.234.133-.469.32-.629.184.16.274.391.317.63a.8.8 0 0 1 .234-.266c.043.23-.02.46-.207.609a.97.97 0 0 0-.344-.512.96.96 0 0 0-.343.512.63.63 0 0 1-.211-.61c.101.067.18.16.234.266M22.61 10.902c.046-.234.132-.468.316-.625.187.16.27.395.32.625a.7.7 0 0 1 .234-.261.64.64 0 0 1-.207.609 1 1 0 0 0-.343-.512.95.95 0 0 0-.348.512.6.6 0 0 1-.207-.61c.098.067.176.16.234.262M16.93 10.406c.222.434.039 1.004.101 1.492.188.008.399-.039.555.098-.219.008-.441.004-.664.004.004-.531-.008-1.062.008-1.594M19.965 11.898c.055-.488-.102-1.046.101-1.492.012.531-.003 1.063 0 1.594-.218 0-.437.004-.656 0 .156-.14.367-.094.555-.102m0 0" style="stroke:none;fill-rule:nonzero;fill:#fff;fill-opacity:1"/><path d="M18.09 11.473c.027-.36.133-.735.41-.98.273.245.371.62.41.98.059-.102.117-.203.2-.293q.004.177.003.347h-.355a1.5 1.5 0 0 0-.258-.265 1.4 1.4 0 0 0-.262.265h-.355q-.001-.17.004-.347c.078.09.136.191.203.293M12.773 10.71h.086c.008.294 0 .587.004.884a1 1 0 0 0-.093-.055c0-.277-.004-.55.003-.828M24.133 10.723q.047-.011.09-.016c.007.277 0 .555.004.832-.032.02-.063.035-.094.055.004-.293 0-.582 0-.871M17.086 10.73h.105c0 .266.004.536 0 .805-.234-.11-.046-.558-.105-.805m0 0" style="stroke:none;fill-rule:nonzero;fill:#fff;fill-opacity:1"/><path d="M17.89 10.707q.177.005.352.004c-.101.191-.16.398-.199.61-.055-.204-.055-.423-.152-.614M18.75 10.71h.344c-.094.192-.102.407-.14.614a2.1 2.1 0 0 0-.204-.613M19.8 10.73h.11v.797c-.039 0-.074-.004-.11-.004zM12.922 10.844h.187v.136q-.098 0-.191-.003c0-.032.004-.098.004-.133M13.75 11.406c.043-.226.137-.449.32-.594.184.145.274.368.317.594a.74.74 0 0 1 .238-.265.56.56 0 0 1-.187.543q-.137-.247-.368-.407a1.1 1.1 0 0 0-.363.407.56.56 0 0 1-.191-.54c.101.063.18.157.234.262M22.61 11.406c.038-.226.136-.449.316-.594.183.145.273.368.32.594a.66.66 0 0 1 .234-.261.55.55 0 0 1-.19.535c-.087-.164-.212-.301-.364-.403a1.2 1.2 0 0 0-.367.407.55.55 0 0 1-.188-.54.7.7 0 0 1 .238.262M23.883 10.844c.066 0 .129.004.195.004q-.004.064-.008.132h-.183c0-.035-.004-.101-.004-.136M12.555 10.988c.312.242.093.707.16 1.051.191.04.133.266.14.406-.015.407.028.82-.023 1.227-.121-.516.223-1.227-.281-1.578 0-.371-.004-.739.004-1.106M24.281 12.04c.063-.345-.152-.81.16-1.052.008.367.004.739.004 1.106-.508.355-.152 1.062-.289 1.574-.031-.473-.008-.945-.015-1.422-.012-.094.043-.191.14-.207M12.922 11.04h.187v.765c-.28-.16-.168-.496-.187-.766M23.883 11.04h.191c-.02.273.09.605-.191.773.004-.258 0-.516 0-.774M17.465 11.066c.168.106.281.27.39.434-.128.012-.261.012-.39.012 0-.149-.004-.297 0-.446M19.14 11.5c.106-.164.223-.324.387-.434q.005.223.004.446c-.133 0-.261 0-.39-.012M21.602 11.203l.054-.043c.008.145.016.285-.004.43-.082-.113-.039-.258-.05-.387M20.121 11.258h1.422v.074c-.473 0-.945.004-1.422 0zM15.035 11.262h.235v.343q-.134.102-.239.23c.008-.19.004-.382.004-.573M15.453 11.258h1.414v.074c-.472.004-.941 0-1.414 0ZM21.727 11.262h.234c0 .191-.004.383.004.574-.18-.149-.3-.328-.238-.574m0 0" style="stroke:none;fill-rule:nonzero;fill:#fff;fill-opacity:1"/><path d="M13.715 11.844a.93.93 0 0 1 .355-.496.93.93 0 0 1 .356.5c-.016.015-.051.054-.067.07a1.4 1.4 0 0 0-.296-.43c-.122.121-.22.27-.282.43zM18.164 11.977c.023-.243.121-.5.336-.633.207.14.309.39.328.633q.082-.102.176-.192.008.176.004.352c-.34.004-.684.004-1.024 0q-.002-.176.008-.352c.063.059.117.125.172.192M22.57 11.852a.92.92 0 0 1 .356-.504.96.96 0 0 1 .36.496c-.02.02-.056.054-.071.074a1.3 1.3 0 0 0-.277-.43c-.125.121-.231.266-.297.43zM15.453 11.39h1.414v.204h-1.41q-.005-.1-.004-.203M20.121 11.39h1.422v.204h-1.422zm0 0" style="stroke:none;fill-rule:nonzero;fill:#fff;fill-opacity:1"/><path d="M13.816 12.059a.94.94 0 0 1 .246-.489 1 1 0 0 1 .262.489.66.66 0 0 1 .293-.254v.332q-.546.006-1.094 0v-.332a.7.7 0 0 1 .293.254M17.086 11.586c.277.008.7-.02.852.258-.286.004-.567 0-.852 0zM17.984 11.586h.22c-.028.078-.052.152-.075.23l-.145-.086zM18.793 11.586h.203v.152c-.043.028-.09.055-.133.082-.02-.078-.047-.156-.07-.234M19.059 11.844c.12-.29.574-.246.851-.258v.258c-.285 0-.566.004-.851 0M22.672 12.059a1 1 0 0 1 .262-.489.94.94 0 0 1 .246.489.7.7 0 0 1 .293-.254v.332q-.547.006-1.094 0v-.332a.66.66 0 0 1 .293.254M12.777 11.61c.16.081.297.21.356.39-.121.004-.238 0-.36 0 0-.129 0-.262.004-.39M15.035 11.988c.059-.175.2-.3.356-.386.004.128.004.261 0 .39q-.176.001-.356-.004M21.605 11.605c.16.082.297.207.356.383q-.18.005-.356.004a6 6 0 0 1 0-.387M23.863 11.996a.7.7 0 0 1 .356-.387q.005.196.004.391c-.121 0-.243.004-.36-.004M15.457 11.652c.465 0 .934.004 1.402 0l.016.086c-.473.012-.945.004-1.418.004zM20.121 11.652h1.422v.09c-.473 0-.95.004-1.422 0zM15.457 11.805h1.41v.21h-1.41c0-.07-.004-.14 0-.21M20.121 11.805h1.422v.21h-1.422zM17.559 11.898h.363q-.001.14.004.274c.035.039.074.082.113.121v1.352h-.355c-.079-.57.156-1.25-.125-1.747M19.07 11.898h.364c-.274.497-.047 1.176-.122 1.747h-.34c.06-.485-.124-1.043.098-1.477zM12.879 12.055c.098 0 .2.004.297.004q.064.065.12.129c.02-.016.04-.036.06-.051l-.106-.078c.07 0 .14-.004.21-.004 0 .039.005.078.005.12.336.391.082.99.16 1.47h-.195c-.012-.493.02-.985-.02-1.477-.098.484.004 1.008-.05 1.508-.122-.313-.012-.688-.055-1.024-.086-.004-.168-.004-.254-.004-.016.332-.004.66-.008.993-.043 0-.086.004-.129.004-.023-.528.04-1.067-.035-1.59M14.754 12.246c.062-.062.129-.129.195-.191.13 0 .254 0 .383.004-.02.02-.05.062-.07.082v1.504h-.184c-.004-.332 0-.665-.004-.997-.539-.074-.101.727-.312 1.028-.024-.477 0-.953-.008-1.43m0 0" style="stroke:none;fill-rule:nonzero;fill:#fff;fill-opacity:1"/><path d="M15.39 12.074c.532.055 1.126-.11 1.614.082-.563.012-1.121 0-1.68.004.024-.027.043-.058.067-.086m0 0" style="stroke:none;fill-rule:nonzero;fill:#fff;fill-opacity:1"/><path d="M16.988 12.055h.633v.59l-.152.011c-.008.328 0 .656-.004.989h-.356v-1.422a3 3 0 0 1-.12-.168M19.375 12.055q.31-.001.621.004l-.129.164v1.422h-.336c-.09-.305.18-.907-.156-1.008a15 15 0 0 1 0-.582M20.055 12.074h1.554q.03.044.063.086h-1.684c.024-.027.043-.058.067-.086M21.668 12.055h.379q.1.093.2.191c-.032.473.054.973-.048 1.434-.031-.344.004-.688-.023-1.032q-.124-.001-.254.004c-.008.332 0 .66-.004.993h-.18v-1.497a2 2 0 0 1-.07-.093m0 0" style="stroke:none;fill-rule:nonzero;fill:#fff;fill-opacity:1"/><path d="M22.133 12.055h.183v.117c.34.39.086.992.164 1.473h-.175c-.004-.477 0-.95 0-1.422a7 7 0 0 0-.172-.168M23.535 12.055h.203l-.172.168c.004.472 0 .945 0 1.422h-.195c.074-.48-.168-1.075.16-1.47q.002-.062.004-.12m0 0" style="stroke:none;fill-rule:nonzero;fill:#fff;fill-opacity:1"/><path d="M23.824 12.059q.147-.005.293-.004c-.07.523-.012 1.062-.031 1.59-.043 0-.09 0-.133-.004-.004-.328.004-.66-.008-.993h-.254c-.043.34.059.707-.05 1.028-.032-.477-.008-.957-.016-1.434q.1-.094.2-.183M13.574 12.203q.1-.001.2.004c.003.477 0 .953.003 1.43-.023.004-.07.008-.093.011-.063-.472.125-1.02-.11-1.445M13.836 12.203h.469v1.442h-.47zM14.367 12.207q.096-.005.195-.004c-.242.434-.035.985-.117 1.465-.18-.41-.027-.988-.078-1.461m0 0" style="stroke:none;fill-rule:nonzero;fill:#fff;fill-opacity:1"/><path d="M14.516 13.645c.086-.543-.254-1.329.355-1.625-.348.44-.105 1.085-.18 1.625zM15.316 12.219a127 127 0 0 1 1.727 0q.004.123.008.246h-1.73q-.006-.123-.005-.246M18.055 12.2q.071.006.148.007.001.721-.004 1.438c-.027 0-.078-.004-.105-.004-.024-.477.047-.97-.04-1.442M18.266 12.207q.229-.005.464-.004v1.442h-.464q-.006-.721 0-1.438M18.793 12.207c.05 0 .105-.004.16-.004-.086.473-.012.965-.039 1.445l-.121-.011zM19.93 12.219c.582-.004 1.164 0 1.75 0v.246h-1.754q-.001-.123.004-.246M22.434 12.203c.066 0 .128 0 .195.004-.055.465.117 1.074-.086 1.457-.066-.48.129-1.031-.11-1.46M22.691 12.207q.237-.005.473-.004v1.442h-.473zM23.223 12.207q.095-.005.195-.004c-.223.426-.043.965-.102 1.442h-.093zM15.316 12.523h1.735c0 .032-.004.09-.004.118l-.129.015c-.004.328 0 .656 0 .985h-.152c0-.332.004-.66 0-.989a3 3 0 0 0-.262 0c-.016.328-.004.657-.008.989h-.172c-.004-.332.008-.664-.008-.993-.086-.003-.171 0-.257 0-.008.332 0 .66-.004.989q-.088.005-.176.004c0-.332.004-.66 0-.993-.508-.082-.172.676-.27.993h-.144c-.004-.328 0-.657-.004-.985-.047-.008-.098-.011-.145-.015zM19.926 12.523h1.754v.122c-.04 0-.11.003-.145.007-.008.328 0 .66-.004.989-.05 0-.105 0-.156-.004-.004-.328.012-.66-.008-.989-.086-.003-.172 0-.258 0-.007.332 0 .66-.004.993h-.175c-.004-.332.004-.66-.004-.993-.508-.078-.168.68-.27.993-.054 0-.113 0-.168-.004-.004-.328.008-.66-.008-.989-.085-.003-.171 0-.257 0-.012.332-.004.66-.004.989-.047.004-.09.004-.137.004 0-.328.004-.66 0-.989q-.081-.004-.156-.007zM13.102 12.707h.156v.93h-.156c-.004-.313 0-.621 0-.93M14.867 12.707h.156c0 .309.004.621 0 .93-.05 0-.105 0-.156-.004zm0 0" style="stroke:none;fill-rule:nonzero;fill:#fff;fill-opacity:1"/><path d="M15.316 12.715c.024-.004.07-.004.09-.008q.006.468 0 .93c-.023 0-.066-.004-.09-.004zM15.668 13.633v-.922c.039 0 .117-.004.152-.004q.006.463 0 .926zM16.11 12.707h.156v.926h-.157zM16.559 12.71l.152-.003v.926h-.152a36 36 0 0 1 0-.922M16.973 13.637c.043-.305-.094-.703.07-.95.012.313.004.63.008.942-.02 0-.059.008-.078.008M17.523 12.703c.024.004.075.004.098.004v.93h-.098a37 37 0 0 1 0-.934M19.375 12.707h.098v.926c-.035 0-.067.004-.098.004a37 37 0 0 1 0-.93M19.93 12.695c.226.18.035.645.097.938-.023 0-.074.004-.101.004 0-.313 0-.63.004-.942M20.273 12.707h.153q.006.463 0 .926h-.153zM20.719 12.71l.152-.003q.005.463.004.926h-.156zM21.16 12.71h.156v.923h-.156zM21.586 12.707c.023 0 .07.008.094.012v.91a1 1 0 0 1-.09.008q-.005-.465-.004-.93M21.969 12.707h.16v.93h-.16zM23.742 12.707h.153v.93h-.153zM12.93 13.7q.228 0 .457.003c-.094.274-.38.258-.614.246q.09-.116.157-.25M13.441 13.7q.099.002.196.003c-.067.145-.184.27-.352.254.059-.082.117-.168.156-.258M13.543 13.95c.078-.087.11-.227.227-.27q.003.13.007.261-.117.004-.234.008M13.836 13.7h.469v.245h-.47zM14.371 13.676c.113.05.149.183.227.273q-.119-.004-.23-.008 0-.13.003-.265M14.504 13.703c.059 0 .117-.004.176-.004.043.09.097.18.152.266-.16-.004-.266-.125-.328-.262M14.738 13.703c.168-.008.34 0 .508-.004.031.086.074.168.117.25-.234.004-.539.04-.625-.246M15.305 13.707a53 53 0 0 1 1.754 0c-.32.496-1.094.121-1.606.238a1 1 0 0 1-.148-.238M17.121 13.7c.172 0 .344-.005.516.003-.114.274-.41.258-.653.242.055-.074.102-.16.137-.246M17.695 13.7q.175 0 .356.003c-.082.238-.32.274-.535.246q.107-.11.18-.25M18.105 13.7h.098v.241q-.128.005-.25.004a1 1 0 0 0 .152-.246M18.266 13.7h.464v.245h-.464a3 3 0 0 1 0-.246M18.793 13.7h.105q.061.133.157.25c-.086-.005-.176-.005-.262-.009zM18.957 13.703q.17-.005.34-.004a1 1 0 0 0 .183.25q-.158-.005-.324-.004a.8.8 0 0 1-.199-.242M19.36 13.703c.163-.008.328-.004.495-.004.043.098.106.18.18.25-.25.004-.558.04-.676-.246M19.91 13.707a54 54 0 0 1 1.781 0c-.168.445-.75.156-1.109.238-.25.016-.55.035-.672-.238M21.754 13.7c.168 0 .336-.005.504.003-.09.285-.39.254-.625.246.043-.082.086-.164.12-.25M22.316 13.7q.089.002.176.003c-.058.137-.168.258-.328.258.055-.086.11-.172.152-.262M22.402 13.95c.075-.09.114-.22.223-.274q.005.136.004.265-.113.004-.227.008M22.691 13.7h.473v.245h-.473zM23.219 13.703c.02 0 .058-.008.078-.012.039.094.094.176.152.254h-.226c0-.082-.004-.16-.004-.242M23.355 13.707l.2-.012c.039.094.093.18.152.258-.168.02-.277-.113-.352-.246M23.613 13.703q.23-.005.457-.004.061.134.157.25c-.235.012-.528.031-.614-.246M12.258 14.004h1.3q-.005.158 0 .312h-1.3zM13.617 14.004h.145c0 .976.004 1.957 0 2.934q-.073-.005-.145-.004zM13.828 14.004h.469v.312h-.469zM14.355 14.004h.149v2.934c-.04-.004-.113-.004-.149-.004zm0 0" style="stroke:none;fill-rule:nonzero;fill:#fff;fill-opacity:1"/><path d="M14.566 14.004h3.43v.312h-3.43zM18.055 14.004h.148q.001 1.464-.004 2.93c-.035 0-.105 0-.144.003zM18.266 14.004h.464v.312h-.464zM18.793 14.004h.148v2.93h-.148zM19 14.004h3.426v.312H19zM22.484 14.008q.073-.005.145-.004c0 .98.004 1.957 0 2.934q-.073-.002-.145-.004zM22.695 14.004q.235-.001.47.004v.308h-.47zM23.223 14.004h.148v2.93h-.148zM23.434 14.004h1.308v.312h-1.308zM13.828 14.375h.469q-.006.157 0 .316h-.469q.006-.157 0-.316M18.27 14.375h.46v.316h-.46a4 4 0 0 1 0-.316M22.695 14.375h.47v.316h-.47zM12.023 14.379h1.532q.002.21.004.422h-1.536zM14.57 14.379h3.426v.422H14.57a8 8 0 0 1 0-.422M19 14.379h3.426v.422H19zM23.434 14.379h1.535v.422h-1.535zM13.828 14.746h.469c0 .106-.004.211 0 .316h-.469zM18.266 14.746h.464v.316h-.464zM22.695 14.746h.47v.316h-.47zM11.645 14.863c.636.004 1.273 0 1.914 0q-.005.288-.004.575h-1.91zM14.566 14.863h3.43v.575H14.57q-.005-.288-.004-.575M19 14.863h3.426v.575H19zM23.434 14.863c.636 0 1.277-.004 1.914 0v.575h-1.914zM13.828 15.125h.469c-.004.105 0 .21 0 .316h-.469zM18.266 15.125h.464v.316h-.464zM22.695 15.125h.47v.316h-.47zM11.266 15.5h2.289c.004.23 0 .46.004.691h-2.297c.004-.23 0-.46.004-.691M13.828 15.496h.469c-.004.106 0 .211 0 .316h-.469zM14.57 15.5h3.422q.005.345.004.691h-3.43q-.001-.345.004-.691M18.266 15.496h.464v.316h-.46q-.005-.157-.004-.316M19 15.5h3.426v.691H19zM22.695 15.496h.47v.316h-.47zM23.434 15.5h2.296v.691h-2.296zM13.828 15.875h.469c-.004.105 0 .21 0 .316h-.469zM18.266 15.875h.464v.316h-.464zM22.695 15.875h.47v.316h-.47zM13.828 16.246c.156 0 .313.004.469 0q-.006.158 0 .32c-.156-.003-.313 0-.469-.003q.006-.159 0-.317M18.27 16.25h.46v.316h-.464q-.001-.157.004-.316M22.695 16.246h.47v.32q-.235-.004-.47-.003zM10.883 16.25c.89.004 1.781 0 2.672 0q.006.345 0 .691-1.336 0-2.672-.003a20 20 0 0 1 0-.688M14.57 16.25h3.426v.691H14.57a20 20 0 0 1 0-.691M19 16.25h3.426v.691H19zM23.434 16.25c.894 0 1.785.004 2.68 0v.688c-.895.003-1.786 0-2.68.003zM13.828 16.621h.469c-.004.106 0 .211 0 .317q-.235.001-.469-.004zM18.266 16.621h.464v.317h-.464zM22.695 16.621h.47v.317h-.47zm0 0" style="stroke:none;fill-rule:nonzero;fill:#fff;fill-opacity:1"/></svg>